<?xml version="1.0" standalone="no"?><!DOCTYPE svg PUBLIC "-//W3C//DTD SVG 1.1//EN" "http://www.w3.org/Graphics/SVG/1.1/DTD/svg11.dtd"><svg t="1541669256756" class="icon" style="" viewBox="0 0 1024 1024" version="1.1" xmlns="http://www.w3.org/2000/svg" p-id="3603" xmlns:xlink="http://www.w3.org/1999/xlink" width="200" height="200"><defs><style type="text/css"></style></defs><path d="M960 704h-63.616v-167.392a32 32 0 0 0-32-32H544V416h160a32 32 0 0 0 32-32V96a32 32 0 0 0-32-32H320a32 32 0 0 0-32 32v288a32 32 0 0 0 32 32h160v88.608H161.984a32 32 0 0 0-32 31.968L129.792 704H64a32 32 0 0 0-32 32v192a32 32 0 0 0 32 32h192a32 32 0 0 0 32-32v-192a32 32 0 0 0-32-32H193.792l0.16-135.392H480V704h-64a32 32 0 0 0-32 32v192a32 32 0 0 0 32 32h192a32 32 0 0 0 32-32v-192a32 32 0 0 0-32-32h-64v-135.392h288.384V704H768a32 32 0 0 0-32 32v192a32 32 0 0 0 32 32h192a32 32 0 0 0 32-32v-192a32 32 0 0 0-32-32zM352 128h320v224H352V128zM224 896H96v-128h128v128z m352 0h-128v-128h128v128z m352 0h-128v-128h128v128z" p-id="3604"></path></svg>