<?xml version="1.0" standalone="no"?><!DOCTYPE svg PUBLIC "-//W3C//DTD SVG 1.1//EN" "http://www.w3.org/Graphics/SVG/1.1/DTD/svg11.dtd"><svg class="icon" width="200px" height="200.00px" viewBox="0 0 1024 1024" version="1.1" xmlns="http://www.w3.org/2000/svg"><path d="M730.331429 613.741714l0 62.317714q0 28.598857-20.845714 50.834286t-53.686857 34.596571-67.437714 18.578286-67.145143 6.290286q-117.174857 0-195.730286-79.433143t-78.555429-197.705143q0-116.004571 77.677714-193.682286t193.682286-77.677714q19.456 0 43.154286 2.56t53.174857 10.313143 52.882286 19.456 39.424 32.256 16.018286 46.299429l0 62.317714q0 9.142857-9.142857 9.142857l-67.437714 0q-9.142857 0-9.142857-9.142857l0-40.009143q0-24.576-37.449143-38.546286t-78.555429-13.970286q-80.018286 0-130.56 52.297143t-50.541714 135.68q0 86.308571 52.297143 142.555429t133.412571 56.32q38.838857 0 78.848-13.677714t40.009143-37.741714l0-40.009143q0-4.022857 2.56-6.582857t5.997714-2.56l68.022857 0q3.437714 0 6.290286 2.56t2.852571 6.582857zM512.073143 146.285714q-74.313143 0-141.970286 29.110857t-116.589714 77.970286-77.970286 116.589714-29.110857 141.970286 29.110857 141.970286 77.970286 116.589714 116.589714 77.970286 141.970286 29.110857 141.970286-29.110857 116.589714-77.970286 77.970286-116.589714 29.110857-141.970286-29.110857-141.970286-77.970286-116.589714-116.589714-77.970286-141.970286-29.110857zM950.930286 512q0 119.442286-58.88 220.306286t-159.744 159.744-220.306286 58.88-220.306286-58.88-159.744-159.744-58.88-220.306286 58.88-220.306286 159.744-159.744 220.306286-58.88 220.306286 58.88 159.744 159.744 58.88 220.306286z" /></svg>